# xmcd CD database file
#
# Track frame offsets:
#	150
#	20175
#	50400
#	74250
#	95850
#	117900
#	140850
#	161625
#	177000
#	207450
#	229500
#	250425
#
# Disc length: 3761 seconds
#
# Revision: 1
# Processed by: cddbd v1.5.1PL0 Copyright (c) Steve Scherf et al.
# Submitted via: freeDBTagger 0.5
#
DISCID=b50eaf0c
DTITLE=KIYOTO．F - DEEP PARADISE inspired by armored trooper VOTOMS
DYEAR=2005
DGENRE=jazz
TTITLE0=db
TTITLE1=Before the Daybreaking
TTITLE2=Space Agency
TTITLE3=Sam
TTITLE4=What Did I Do To Be Blue？（夢の鍵）feat. Lia
TTITLE5=I’ll Be The One For You（風が知っている）feat. Lia
TTITLE6=Epilogue
TTITLE7=Coffee Crush
TTITLE8=Deep Paradise
TTITLE9=Join the Party Scene（炎のさだめ）feat. Lia
TTITLE10=Always You（いつもあなたが）feat. Lia
TTITLE11=Let’s Make A Dream Come True（LEAVEたのまれグッバイ）feat. Lia
EXTD=GBCL-2005 05/07/22
EXTT0=
EXTT1=
EXTT2=
EXTT3=
EXTT4=
EXTT5=
EXTT6=
EXTT7=
EXTT8=
EXTT9=
EXTT10=
EXTT11=
PLAYORDER=
